HIERARCHY
ROOT Hips
{
	OFFSET 0.000000 0.000000 0.000000
	CHANNELS 6 Xposition Yposition Zposition Xrotation Yrotation Zrotation
	JOINT LeftUpLeg_virtual
	{
		OFFSET 0.000000 0.000000 0.000000
		CHANNELS 3 Xrotation Yrotation Zrotation
		JOINT LeftUpLeg
		{
			OFFSET 13.026900 -6.336304 -1.092800
			CHANNELS 3 Xrotation Yrotation Zrotation
			JOINT LeftLeg
			{
				OFFSET 0.524474 -46.096886 9.782700
				CHANNELS 3 Xrotation Yrotation Zrotation
				JOINT LeftFoot
				{
					OFFSET -0.524474 -53.427422 -12.948200
					CHANNELS 3 Xrotation Yrotation Zrotation
					JOINT LeftToeBase
					{
						OFFSET 0.192200 -14.009700 16.364100
						CHANNELS 3 Xrotation Yrotation Zrotation
						JOINT LeftToe_End
						{
							OFFSET -1.784700 -0.561700 9.474800
							CHANNELS 3 Xrotation Yrotation Zrotation
							End Site
							{
								OFFSET 0 0 0
							}
						}
					}
				}
			}
		}
	}
	JOINT RightUpLeg_virtual
	{
		OFFSET 0.000000 0.000000 0.000000
		CHANNELS 3 Xrotation Yrotation Zrotation
		JOINT RightUpLeg
		{
			OFFSET -12.883000 -6.336304 -1.092800
			CHANNELS 3 Xrotation Yrotation Zrotation
			JOINT RightLeg
			{
				OFFSET -0.524587 -46.096825 9.782800
				CHANNELS 3 Xrotation Yrotation Zrotation
				JOINT RightFoot
				{
					OFFSET 0.524587 -53.427383 -12.948300
					CHANNELS 3 Xrotation Yrotation Zrotation
					JOINT RightToeBase
					{
						OFFSET -0.192200 -14.009700 16.364100
						CHANNELS 3 Xrotation Yrotation Zrotation
						JOINT RightToe_End
						{
							OFFSET 1.784700 -0.561700 9.474800
							CHANNELS 3 Xrotation Yrotation Zrotation
							End Site
							{
								OFFSET 0 0 0
							}
						}
					}
				}
			}
		}
	}
	JOINT Spine_virtual
	{
		OFFSET 0.000000 0.000000 0.000000
		CHANNELS 3 Xrotation Yrotation Zrotation
		JOINT Spine
		{
			OFFSET 0.072000 7.257294 -0.789700
			CHANNELS 3 Xrotation Yrotation Zrotation
			JOINT Spine1
			{
				OFFSET 0.000000 12.508769 -0.658067
				CHANNELS 3 Xrotation Yrotation Zrotation
				JOINT Spine1_split
				{
					OFFSET 0.000000 12.508769 -0.658067
					CHANNELS 3 Xrotation Yrotation Zrotation
					JOINT Spine2
					{
						OFFSET 0.000000 12.508769 -0.658067
						CHANNELS 3 Xrotation Yrotation Zrotation
						JOINT Neck_virtual
						{
							OFFSET 0.000000 0.000000 0.000000
							CHANNELS 3 Xrotation Yrotation Zrotation
							JOINT Neck
							{
								OFFSET 0.000000 14.033295 7.520400
								CHANNELS 3 Xrotation Yrotation Zrotation
								JOINT Head
								{
									OFFSET 0.000000 8.198502 5.703100
									CHANNELS 3 Xrotation Yrotation Zrotation
									JOINT HeadTop_End
									{
										OFFSET 0.000000 17.760803 13.332701
										CHANNELS 3 Xrotation Yrotation Zrotation
										End Site
										{
											OFFSET 0 0 0
										}
									}
								}
							}
						}
						JOINT LeftShoulder_virtual
						{
							OFFSET 0.000000 0.000000 0.000000
							CHANNELS 3 Xrotation Yrotation Zrotation
							JOINT LeftShoulder
							{
								OFFSET 6.292450 5.785301 -0.669000
								CHANNELS 3 Xrotation Yrotation Zrotation
								JOINT LeftShoulder_split
								{
									OFFSET 6.292450 5.785301 -0.669000
									CHANNELS 3 Xrotation Yrotation Zrotation
									JOINT LeftArm
									{
										OFFSET 13.907140 -6.093903 1.965100
										CHANNELS 3 Xrotation Yrotation Zrotation
										JOINT LeftForeArm
										{
											OFFSET 34.140198 0.000000 0.000000
											CHANNELS 3 Xrotation Yrotation Zrotation
											JOINT LeftHand
											{
												OFFSET 40.960209 0.000000 0.000000
												CHANNELS 3 Xrotation Yrotation Zrotation
												End Site
												{
													OFFSET 0 0 0
												}
											}
										}
									}
								}
							}
						}
						JOINT RightShoulder_virtual
						{
							OFFSET 0.000000 0.000000 0.000000
							CHANNELS 3 Xrotation Yrotation Zrotation
							JOINT RightShoulder
							{
								OFFSET -6.292450 5.785301 -0.669000
								CHANNELS 3 Xrotation Yrotation Zrotation
								JOINT RightShoulder_split
								{
									OFFSET -6.292450 5.785301 -0.669000
									CHANNELS 3 Xrotation Yrotation Zrotation
									JOINT RightArm
									{
										OFFSET -13.907140 -6.093903 1.965100
										CHANNELS 3 Xrotation Yrotation Zrotation
										JOINT RightForeArm
										{
											OFFSET -34.140198 0.000000 0.000000
											CHANNELS 3 Xrotation Yrotation Zrotation
											JOINT RightHand
											{
												OFFSET -40.960209 0.000000 0.000000
												CHANNELS 3 Xrotation Yrotation Zrotation
												End Site
												{
													OFFSET 0 0 0
												}
											}
										}
									}
								}
							}
						}
					}
				}
			}
		}
	}
}
MOTION
Frames: 7
Frame Time: 0.03333333
-0.390302 107.103432 10.620838 0.000000 0.000000 0.000000 -14.504848 -1.645860 -5.063963 -35.381288 21.753067 11.050744 42.531164 -6.733251 9.689477 1.604051 -7.493798 -0.354955 -2.265944 -0.047020 -1.034600 0.000000 0.000000 0.000000 -14.182417 -0.929119 -5.063444 -25.194556 -31.595482 -4.239804 35.283671 6.645050 -8.530328 3.301726 8.282972 -5.403139 -3.025671 0.418905 0.374745 0.000000 0.000000 0.000000 -14.401416 -1.917802 -5.467832 5.138164 -1.342593 2.325570 13.612760 -0.785800 -0.561453 0.482040 2.386746 -0.450213 0.000000 0.000000 0.000000 12.154951 -0.242357 -0.738218 12.050032 0.720115 1.074647 -2.472631 0.632402 3.007816 0.000000 0.000000 0.000000 12.446059 -0.122480 -0.821259 0.849168 6.750792 -10.182557 -2.005603 -2.666726 -0.534513 65.366877 -67.225324 -5.001164 0.226487 -26.939506 1.338369 0.000000 0.000000 0.000000 12.540249 -0.330129 -0.813627 1.392348 -1.560679 11.627362 6.176868 0.549671 -2.495270 6.477016 35.793504 57.887943 -0.946933 27.996515 0.368632 0.000000 0.000000 0.000000 
-0.403839 107.113556 10.637688 0.000000 0.000000 0.000000 -14.497809 -1.626829 -5.066333 -35.386571 21.761690 11.051595 42.525700 -6.728016 9.692701 1.614225 -7.488755 -0.351701 -2.266283 -0.047180 -1.033943 0.000000 0.000000 0.000000 -14.175743 -0.918265 -5.066046 -25.187928 -31.586261 -4.237586 35.268641 6.650999 -8.530641 3.309628 8.298433 -5.389173 -3.046491 0.417287 0.376431 0.000000 0.000000 0.000000 -14.391033 -1.902150 -5.467090 5.130792 -1.339898 2.326921 13.612471 -0.785039 -0.564059 0.480708 2.380523 -0.452715 0.000000 0.000000 0.000000 12.159453 -0.242106 -0.741223 12.056531 0.720908 1.073388 -2.485495 0.640197 3.004705 0.000000 0.000000 0.000000 12.448619 -0.121938 -0.821862 0.847416 6.737045 -10.180198 -2.016549 -2.657328 -0.524487 65.334537 -67.191037 -5.021057 0.214049 -26.942197 1.323698 0.000000 0.000000 0.000000 12.536857 -0.331720 -0.815241 1.392361 -1.566095 11.626712 6.185258 0.546105 -2.491756 6.464760 35.805197 57.895935 -0.948595 28.014354 0.370382 0.000000 0.000000 0.000000 
-0.417819 107.128716 10.654274 0.000000 0.000000 0.000000 -14.485907 -1.582719 -5.070302 -35.395983 21.755353 11.049039 42.511152 -6.731736 9.699836 1.632336 -7.490923 -0.350051 -2.270919 -0.047988 -1.030588 0.000000 0.000000 0.000000 -14.161526 -0.891338 -5.071417 -25.165047 -31.606181 -4.238845 35.235283 6.657674 -8.527577 3.309461 8.325099 -5.382203 -3.046387 0.418115 0.380036 0.000000 0.000000 0.000000 -14.374360 -1.870182 -5.467681 5.127726 -1.338731 2.331463 13.610417 -0.789657 -0.566837 0.485219 2.378714 -0.453007 0.000000 0.000000 0.000000 12.162496 -0.246950 -0.745174 12.052158 0.722428 1.088864 -2.509371 0.673423 2.989399 0.000000 0.000000 0.000000 12.449492 -0.126936 -0.822324 0.845280 6.731087 -10.173492 -2.019716 -2.664547 -0.514635 65.083677 -67.172308 -5.242144 0.202706 -26.911449 1.311363 0.000000 0.000000 0.000000 12.531691 -0.338765 -0.817458 1.393843 -1.571880 11.617444 6.191966 0.549373 -2.486511 6.454018 35.812611 57.906016 -0.946769 28.034935 0.372458 0.000000 0.000000 0.000000 
-0.429485 107.141693 10.669735 0.000000 0.000000 0.000000 -14.472006 -1.522552 -5.074944 -35.410696 21.737330 11.043900 42.494865 -6.737920 9.707897 1.655146 -7.496086 -0.342852 -2.277352 -0.049402 -1.025678 0.000000 0.000000 0.000000 -14.144756 -0.848307 -5.078433 -25.133180 -31.651875 -4.245046 35.189906 6.663764 -8.521832 3.299983 8.356252 -5.382788 -3.031303 0.421694 0.384405 0.000000 0.000000 0.000000 -14.356084 -1.824088 -5.469044 5.129317 -1.339858 2.338000 13.607184 -0.798939 -0.569093 0.489033 2.382437 -0.455257 0.000000 0.000000 0.000000 12.165701 -0.256246 -0.748708 12.036737 0.725251 1.118801 -2.541162 0.729791 2.961898 0.000000 0.000000 0.000000 12.448798 -0.136601 -0.821901 0.842487 6.733988 -10.161809 -2.018389 -2.679911 -0.505454 64.632011 -67.173688 -5.655429 0.194448 -26.860424 1.303819 0.000000 0.000000 0.000000 12.525781 -0.350484 -0.819562 1.397009 -1.576250 11.600253 6.198567 0.563443 -2.480404 6.448083 35.817437 57.915626 -0.941983 28.053411 0.375138 0.000000 0.000000 0.000000 
-0.438185 107.150642 10.684116 0.000000 0.000000 0.000000 -14.456480 -1.454559 -5.078720 -35.430155 21.712231 11.034664 42.481772 -6.740053 9.713999 1.675871 -7.498017 -0.323707 -2.283031 -0.050681 -1.020814 0.000000 0.000000 0.000000 -14.127131 -0.791477 -5.084400 -25.098918 -31.714996 -4.258161 35.146306 6.671147 -8.515069 3.282426 8.387012 -5.379865 -3.024545 0.427599 0.387994 0.000000 0.000000 0.000000 -14.338831 -1.768314 -5.470747 5.135259 -1.344305 2.344886 13.603761 -0.812210 -0.569906 0.492103 2.386688 -0.458690 0.000000 0.000000 0.000000 12.169868 -0.269030 -0.750530 12.011375 0.729083 1.159042 -2.575348 0.807441 2.922550 0.000000 0.000000 0.000000 12.447841 -0.150178 -0.819538 0.838883 6.746576 -10.142927 -2.014420 -2.699902 -0.497846 64.017895 -67.196002 -6.228680 0.191768 -26.796200 1.302701 0.000000 0.000000 0.000000 12.520176 -0.366189 -0.820596 1.401641 -1.577858 11.574924 6.202556 0.584359 -2.472064 6.449363 35.822870 57.919273 -0.935770 28.063127 0.378786 0.000000 0.000000 0.000000 
-0.444008 107.152855 10.696129 0.000000 0.000000 0.000000 -14.437980 -1.384566 -5.080173 -35.453367 21.683009 11.020818 42.473743 -6.735116 9.716570 1.690819 -7.492929 -0.292642 -2.287134 -0.051189 -1.017354 0.000000 0.000000 0.000000 -14.111321 -0.724784 -5.088186 -25.066402 -31.781444 -4.276643 35.114344 6.681156 -8.509685 3.262380 8.410566 -5.364936 -3.038958 0.434573 0.389584 0.000000 0.000000 0.000000 -14.324942 -1.706665 -5.471419 5.143480 -1.352591 2.350975 13.600856 -0.828802 -0.568654 0.492748 2.390182 -0.466703 0.000000 0.000000 0.000000 12.175977 -0.285119 -0.749612 11.976841 0.734601 1.204455 -2.604314 0.903693 2.873571 0.000000 0.000000 0.000000 12.448390 -0.166958 -0.814756 0.834461 6.767731 -10.114943 -2.002511 -2.724241 -0.487245 63.300438 -67.236116 -6.911675 0.194250 -26.722152 1.308081 0.000000 0.000000 0.000000 12.517264 -0.385235 -0.819313 1.407858 -1.574787 11.542845 6.201910 0.601954 -2.460441 6.461207 35.832641 57.913372 -0.929643 28.060693 0.384238 0.000000 0.000000 0.000000 
-0.448493 107.151123 10.705971 0.000000 0.000000 0.000000 -14.420727 -1.318970 -5.079206 -35.477188 21.650721 11.001378 42.468518 -6.726295 9.716718 1.703023 -7.480517 -0.258495 -2.289969 -0.050635 -1.015954 0.000000 0.000000 0.000000 -14.097635 -0.654055 -5.088209 -25.036316 -31.835935 -4.295647 35.100574 6.692105 -8.506131 3.238316 8.417458 -5.333530 -3.066173 0.441139 0.389226 0.000000 0.000000 0.000000 -14.314827 -1.639742 -5.470467 5.153015 -1.365588 2.356060 13.598486 -0.848343 -0.564535 0.491061 2.392169 -0.475361 0.000000 0.000000 0.000000 12.183368 -0.303878 -0.745308 11.935177 0.742252 1.250156 -2.621048 1.010646 2.818466 0.000000 0.000000 0.000000 12.451872 -0.186536 -0.807469 0.829189 6.794387 -10.077434 -1.994344 -2.742823 -0.476516 62.546911 -67.284863 -7.644483 0.198753 -26.628440 1.317546 0.000000 0.000000 0.000000 12.517818 -0.406589 -0.814853 1.416321 -1.565369 11.505119 6.199095 0.614543 -2.445847 6.487333 35.848507 57.892854 -0.924854 28.048001 0.391110 0.000000 0.000000 0.000000 
